<?xml version="1.0" standalone="no"?>
<svg xmlns:xlink="http://www.w3.org/1999/xlink" id="wave" style="transform:rotate(0deg); transition: 0.3s" viewBox="0 0 1440 490" version="1.1" xmlns="http://www.w3.org/2000/svg"><defs><linearGradient id="sw-gradient-0" x1="0" x2="0" y1="1" y2="0"><stop stop-color="rgba(252, 248, 255, 1)" offset="0%"/><stop stop-color="rgba(252, 248, 255, 1)" offset="100%"/></linearGradient></defs><path style="transform:translate(0, 0px); opacity:1" fill="url(#sw-gradient-0)" d="M0,245L120,269.5C240,294,480,343,720,343C960,343,1200,294,1440,253.2C1680,212,1920,180,2160,187.8C2400,196,2640,245,2880,220.5C3120,196,3360,98,3600,114.3C3840,131,4080,261,4320,302.2C4560,343,4800,294,5040,302.2C5280,310,5520,376,5760,408.3C6000,441,6240,441,6480,424.7C6720,408,6960,376,7200,343C7440,310,7680,278,7920,285.8C8160,294,8400,343,8640,318.5C8880,294,9120,196,9360,138.8C9600,82,9840,65,10080,73.5C10320,82,10560,114,10800,155.2C11040,196,11280,245,11520,220.5C11760,196,12000,98,12240,49C12480,0,12720,0,12960,49C13200,98,13440,196,13680,261.3C13920,327,14160,359,14400,351.2C14640,343,14880,294,15120,236.8C15360,180,15600,114,15840,130.7C16080,147,16320,245,16560,253.2C16800,261,17040,180,17160,138.8L17280,98L17280,490L17160,490C17040,490,16800,490,16560,490C16320,490,16080,490,15840,490C15600,490,15360,490,15120,490C14880,490,14640,490,14400,490C14160,490,13920,490,13680,490C13440,490,13200,490,12960,490C12720,490,12480,490,12240,490C12000,490,11760,490,11520,490C11280,490,11040,490,10800,490C10560,490,10320,490,10080,490C9840,490,9600,490,9360,490C9120,490,8880,490,8640,490C8400,490,8160,490,7920,490C7680,490,7440,490,7200,490C6960,490,6720,490,6480,490C6240,490,6000,490,5760,490C5520,490,5280,490,5040,490C4800,490,4560,490,4320,490C4080,490,3840,490,3600,490C3360,490,3120,490,2880,490C2640,490,2400,490,2160,490C1920,490,1680,490,1440,490C1200,490,960,490,720,490C480,490,240,490,120,490L0,490Z"/></svg>