<?xml version="1.0" standalone="no"?>
<svg xmlns:xlink="http://www.w3.org/1999/xlink" id="wave" style="transform:rotate(180deg); transition: 0.3s" viewBox="0 0 1440 490" version="1.1" xmlns="http://www.w3.org/2000/svg"><defs><linearGradient id="sw-gradient-0" x1="0" x2="0" y1="1" y2="0"><stop stop-color="rgba(36, 5, 62, 1)" offset="0%"/><stop stop-color="rgba(36, 5, 62, 1)" offset="100%"/></linearGradient></defs><path style="transform:translate(0, 0px); opacity:1" fill="url(#sw-gradient-0)" d="M0,147L120,122.5C240,98,480,49,720,49C960,49,1200,98,1440,138.8C1680,180,1920,212,2160,220.5C2400,229,2640,212,2880,196C3120,180,3360,163,3600,147C3840,131,4080,114,4320,138.8C4560,163,4800,229,5040,253.2C5280,278,5520,261,5760,212.3C6000,163,6240,82,6480,73.5C6720,65,6960,131,7200,171.5C7440,212,7680,229,7920,236.8C8160,245,8400,245,8640,228.7C8880,212,9120,180,9360,179.7C9600,180,9840,212,10080,187.8C10320,163,10560,82,10800,40.8C11040,0,11280,0,11520,65.3C11760,131,12000,261,12240,261.3C12480,261,12720,131,12960,65.3C13200,0,13440,0,13680,73.5C13920,147,14160,294,14400,334.8C14640,376,14880,310,15120,236.8C15360,163,15600,82,15840,81.7C16080,82,16320,163,16560,196C16800,229,17040,212,17160,204.2L17280,196L17280,490L17160,490C17040,490,16800,490,16560,490C16320,490,16080,490,15840,490C15600,490,15360,490,15120,490C14880,490,14640,490,14400,490C14160,490,13920,490,13680,490C13440,490,13200,490,12960,490C12720,490,12480,490,12240,490C12000,490,11760,490,11520,490C11280,490,11040,490,10800,490C10560,490,10320,490,10080,490C9840,490,9600,490,9360,490C9120,490,8880,490,8640,490C8400,490,8160,490,7920,490C7680,490,7440,490,7200,490C6960,490,6720,490,6480,490C6240,490,6000,490,5760,490C5520,490,5280,490,5040,490C4800,490,4560,490,4320,490C4080,490,3840,490,3600,490C3360,490,3120,490,2880,490C2640,490,2400,490,2160,490C1920,490,1680,490,1440,490C1200,490,960,490,720,490C480,490,240,490,120,490L0,490Z"/></svg>